<mxfile host="app.diagrams.net" agent="Mozilla/5.0 (Windows NT 10.0; Win64; x64; rv:133.0) Gecko/20100101 Firefox/133.0" version="25.0.3">
  <diagram name="Page-1" id="2YBvvXClWsGukQMizWep">
    <mxGraphModel dx="607" dy="319" grid="1" gridSize="10" guides="1" tooltips="1" connect="1" arrows="1" fold="1" page="1" pageScale="1" pageWidth="850" pageHeight="1100" math="0" shadow="0">
      <root>
        <mxCell id="0" />
        <mxCell id="1" parent="0" />
        <mxCell id="1ZKG4CmkqfWAM7Gi57S6-19" value="redirectProfilePage(message)" style="html=1;verticalAlign=bottom;endArrow=open;dashed=1;endSize=8;curved=0;rounded=0;" parent="1" edge="1">
          <mxGeometry x="-0.0015" relative="1" as="geometry">
            <mxPoint x="509.5" y="740" as="sourcePoint" />
            <mxPoint x="210" y="740" as="targetPoint" />
            <Array as="points">
              <mxPoint x="450" y="740" />
              <mxPoint x="390" y="740" />
              <mxPoint x="330" y="740" />
              <mxPoint x="300" y="740" />
            </Array>
            <mxPoint as="offset" />
          </mxGeometry>
        </mxCell>
        <mxCell id="1ZKG4CmkqfWAM7Gi57S6-6" value="&lt;b&gt;SD&lt;/b&gt; Update User Profile" style="shape=umlFrame;whiteSpace=wrap;html=1;pointerEvents=0;width=150;height=30;" parent="1" vertex="1">
          <mxGeometry x="160" y="340" width="430" height="530" as="geometry" />
        </mxCell>
        <mxCell id="1ZKG4CmkqfWAM7Gi57S6-11" value="S&amp;amp;C" style="shape=umlLifeline;perimeter=lifelinePerimeter;whiteSpace=wrap;html=1;container=1;dropTarget=0;collapsible=0;recursiveResize=0;outlineConnect=0;portConstraint=eastwest;newEdgeStyle={&quot;curved&quot;:0,&quot;rounded&quot;:0};" parent="1" vertex="1">
          <mxGeometry x="460" y="380" width="100" height="460" as="geometry" />
        </mxCell>
        <mxCell id="ymWepqPld3naHtEsWhe9-1" value="" style="html=1;points=[[0,0,0,0,5],[0,1,0,0,-5],[1,0,0,0,5],[1,1,0,0,-5]];perimeter=orthogonalPerimeter;outlineConnect=0;targetShapes=umlLifeline;portConstraint=eastwest;newEdgeStyle={&quot;curved&quot;:0,&quot;rounded&quot;:0};" parent="1ZKG4CmkqfWAM7Gi57S6-11" vertex="1">
          <mxGeometry x="45" y="60" width="10" height="50" as="geometry" />
        </mxCell>
        <mxCell id="4LtvWV7dufNh1m0u4uJH-1" value="" style="html=1;points=[[0,0,0,0,5],[0,1,0,0,-5],[1,0,0,0,5],[1,1,0,0,-5]];perimeter=orthogonalPerimeter;outlineConnect=0;targetShapes=umlLifeline;portConstraint=eastwest;newEdgeStyle={&quot;curved&quot;:0,&quot;rounded&quot;:0};" vertex="1" parent="1ZKG4CmkqfWAM7Gi57S6-11">
          <mxGeometry x="45" y="140" width="10" height="300" as="geometry" />
        </mxCell>
        <mxCell id="dPNw0MePi0ac8ZlQJu02-3" value="" style="html=1;points=[[0,0,0,0,5],[0,1,0,0,-5],[1,0,0,0,5],[1,1,0,0,-5]];perimeter=orthogonalPerimeter;outlineConnect=0;targetShapes=umlLifeline;portConstraint=eastwest;newEdgeStyle={&quot;curved&quot;:0,&quot;rounded&quot;:0};" parent="1ZKG4CmkqfWAM7Gi57S6-11" vertex="1">
          <mxGeometry x="50" y="168" width="10" height="40" as="geometry" />
        </mxCell>
        <mxCell id="1ZKG4CmkqfWAM7Gi57S6-21" value="" style="html=1;points=[[0,0,0,0,5],[0,1,0,0,-5],[1,0,0,0,5],[1,1,0,0,-5]];perimeter=orthogonalPerimeter;outlineConnect=0;targetShapes=umlLifeline;portConstraint=eastwest;newEdgeStyle={&quot;curved&quot;:0,&quot;rounded&quot;:0};" parent="1ZKG4CmkqfWAM7Gi57S6-11" vertex="1">
          <mxGeometry x="50" y="230" width="10" height="40" as="geometry" />
        </mxCell>
        <mxCell id="1ZKG4CmkqfWAM7Gi57S6-17" style="edgeStyle=orthogonalEdgeStyle;rounded=0;orthogonalLoop=1;jettySize=auto;html=1;curved=0;" parent="1" edge="1">
          <mxGeometry relative="1" as="geometry">
            <mxPoint x="209.81034482758616" y="519.9999999999999" as="sourcePoint" />
            <mxPoint x="509.5" y="519.9999999999999" as="targetPoint" />
          </mxGeometry>
        </mxCell>
        <mxCell id="1ZKG4CmkqfWAM7Gi57S6-18" value="modifyInfo(profile, modifications)" style="edgeLabel;html=1;align=center;verticalAlign=middle;resizable=0;points=[];" parent="1ZKG4CmkqfWAM7Gi57S6-17" vertex="1" connectable="0">
          <mxGeometry x="0.0133" y="1" relative="1" as="geometry">
            <mxPoint y="-9" as="offset" />
          </mxGeometry>
        </mxCell>
        <mxCell id="1ZKG4CmkqfWAM7Gi57S6-13" value="" style="shape=umlLifeline;perimeter=lifelinePerimeter;whiteSpace=wrap;html=1;container=1;dropTarget=0;collapsible=0;recursiveResize=0;outlineConnect=0;portConstraint=eastwest;newEdgeStyle={&quot;curved&quot;:0,&quot;rounded&quot;:0};participant=umlActor;size=40;" parent="1" vertex="1">
          <mxGeometry x="200" y="380" width="20" height="460" as="geometry" />
        </mxCell>
        <mxCell id="1ZKG4CmkqfWAM7Gi57S6-14" value="User" style="text;html=1;align=center;verticalAlign=middle;resizable=0;points=[];autosize=1;strokeColor=none;fillColor=none;" parent="1" vertex="1">
          <mxGeometry x="225" y="390" width="50" height="30" as="geometry" />
        </mxCell>
        <mxCell id="1ZKG4CmkqfWAM7Gi57S6-16" value="showUpdatePage()" style="html=1;verticalAlign=bottom;endArrow=open;dashed=1;endSize=8;curved=0;rounded=0;" parent="1" edge="1">
          <mxGeometry x="-0.0023" relative="1" as="geometry">
            <mxPoint x="509.5" y="490" as="sourcePoint" />
            <mxPoint x="209.5" y="490" as="targetPoint" />
            <Array as="points">
              <mxPoint x="390" y="490" />
            </Array>
            <mxPoint as="offset" />
          </mxGeometry>
        </mxCell>
        <mxCell id="1ZKG4CmkqfWAM7Gi57S6-23" value="alternative" style="shape=umlFrame;whiteSpace=wrap;html=1;pointerEvents=0;width=75;height=30;" parent="1" vertex="1">
          <mxGeometry x="175" y="660" width="395" height="190" as="geometry" />
        </mxCell>
        <mxCell id="1ZKG4CmkqfWAM7Gi57S6-24" value="if writeToDb(modifications)" style="text;html=1;align=center;verticalAlign=middle;resizable=0;points=[];autosize=1;strokeColor=none;fillColor=none;labelBackgroundColor=default;" parent="1" vertex="1">
          <mxGeometry x="175" y="690" width="160" height="30" as="geometry" />
        </mxCell>
        <mxCell id="1ZKG4CmkqfWAM7Gi57S6-25" value="" style="endArrow=none;dashed=1;html=1;rounded=0;entryX=1.01;entryY=0.596;entryDx=0;entryDy=0;entryPerimeter=0;exitX=-0.002;exitY=0.603;exitDx=0;exitDy=0;exitPerimeter=0;" parent="1" edge="1">
          <mxGeometry width="50" height="50" relative="1" as="geometry">
            <mxPoint x="172.63000000000002" y="771.12" as="sourcePoint" />
            <mxPoint x="572.37" y="769.9999999999999" as="targetPoint" />
            <Array as="points" />
          </mxGeometry>
        </mxCell>
        <mxCell id="1ZKG4CmkqfWAM7Gi57S6-26" value="&lt;span style=&quot;background-color: rgb(255, 255, 255);&quot;&gt;else&lt;/span&gt;" style="text;html=1;align=center;verticalAlign=middle;resizable=0;points=[];autosize=1;strokeColor=none;fillColor=none;" parent="1" vertex="1">
          <mxGeometry x="170" y="770" width="50" height="30" as="geometry" />
        </mxCell>
        <mxCell id="1ZKG4CmkqfWAM7Gi57S6-27" value="redirectUpdatePage(message)" style="html=1;verticalAlign=bottom;endArrow=open;dashed=1;endSize=8;curved=0;rounded=0;" parent="1" edge="1">
          <mxGeometry x="-0.005" relative="1" as="geometry">
            <mxPoint x="509.5" y="820" as="sourcePoint" />
            <mxPoint x="210" y="820" as="targetPoint" />
            <Array as="points">
              <mxPoint x="450" y="820" />
              <mxPoint x="390" y="820" />
              <mxPoint x="330" y="820" />
              <mxPoint x="300" y="820" />
            </Array>
            <mxPoint as="offset" />
          </mxGeometry>
        </mxCell>
        <mxCell id="dPNw0MePi0ac8ZlQJu02-2" value="writeToDb(modifications)" style="html=1;align=left;spacingLeft=2;endArrow=block;rounded=0;edgeStyle=orthogonalEdgeStyle;curved=0;rounded=0;" parent="1" edge="1">
          <mxGeometry x="-1" y="-49" relative="1" as="geometry">
            <mxPoint x="515" y="601.03" as="sourcePoint" />
            <Array as="points">
              <mxPoint x="545" y="631.03" />
            </Array>
            <mxPoint x="520" y="631" as="targetPoint" />
            <mxPoint x="-45" y="-30" as="offset" />
          </mxGeometry>
        </mxCell>
        <mxCell id="aM9ryv3xv72pqoxQDRHE-7" value="getUpdatePage(profile)" style="html=1;verticalAlign=bottom;endArrow=block;edgeStyle=elbowEdgeStyle;elbow=vertical;curved=0;rounded=0;" parent="1" edge="1">
          <mxGeometry x="0.0023" relative="1" as="geometry">
            <mxPoint x="209.81034482758616" y="439.9999999999999" as="sourcePoint" />
            <Array as="points">
              <mxPoint x="400" y="440" />
              <mxPoint x="365" y="410" />
            </Array>
            <mxPoint x="509.5" y="439.9999999999999" as="targetPoint" />
            <mxPoint as="offset" />
          </mxGeometry>
        </mxCell>
        <mxCell id="dPNw0MePi0ac8ZlQJu02-4" value="checkModifications(modifications)" style="html=1;align=left;spacingLeft=2;endArrow=block;rounded=0;edgeStyle=orthogonalEdgeStyle;curved=0;rounded=0;" parent="1" edge="1">
          <mxGeometry x="-1" y="48" relative="1" as="geometry">
            <mxPoint x="515" y="544.03" as="sourcePoint" />
            <Array as="points">
              <mxPoint x="515" y="540" />
              <mxPoint x="545" y="540" />
              <mxPoint x="545" y="574" />
            </Array>
            <mxPoint x="520" y="574" as="targetPoint" />
            <mxPoint x="3" y="16" as="offset" />
          </mxGeometry>
        </mxCell>
      </root>
    </mxGraphModel>
  </diagram>
</mxfile>
